<?xml version="1.0" encoding="utf-8"?>
<!-- Generator: Adobe Illustrator 16.0.4, SVG Export Plug-In . SVG Version: 6.00 Build 0)  -->
<!DOCTYPE svg PUBLIC "-//W3C//DTD SVG 1.1//EN" "http://www.w3.org/Graphics/SVG/1.1/DTD/svg11.dtd">
<svg version="1.1" id="Layer_1" xmlns="http://www.w3.org/2000/svg" xmlns:xlink="http://www.w3.org/1999/xlink" x="0px" y="0px"
	 width="15px" height="15px" viewBox="0 0 15 15" enable-background="new 0 0 15 15" xml:space="preserve">
<path d="M1.263,7.307c0-1.088,0.268-2.092,0.804-3.012c0.536-0.92,1.264-1.648,2.184-2.184c0.92-0.536,1.924-0.804,3.012-0.804
	c1.088,0,2.092,0.269,3.012,0.804c0.92,0.536,1.648,1.264,2.184,2.184c0.536,0.92,0.805,1.924,0.805,3.012
	c0,1.088-0.269,2.092-0.805,3.012c-0.535,0.92-1.264,1.647-2.184,2.185c-0.92,0.535-1.924,0.803-3.012,0.803
	c-1.088,0-2.092-0.268-3.012-0.803c-0.92-0.537-1.648-1.265-2.184-2.185C1.531,9.399,1.263,8.396,1.263,7.307z M2.259,7.307
	c0,1.248,0.42,2.348,1.26,3.3c0.384-0.752,0.992-1.469,1.824-2.148s1.644-1.107,2.436-1.284c-0.12-0.28-0.236-0.532-0.348-0.756
	c-1.376,0.44-2.864,0.66-4.464,0.66c-0.312,0-0.544-0.004-0.696-0.012v0.12C2.271,7.235,2.267,7.275,2.259,7.307z M2.415,6.071
	c0.176,0.016,0.436,0.024,0.78,0.024c1.336,0,2.604-0.18,3.804-0.54c-0.608-1.08-1.276-1.98-2.004-2.7
	c-0.632,0.32-1.172,0.764-1.62,1.332C2.927,4.755,2.607,5.383,2.415,6.071z M4.203,11.256c0.904,0.703,1.924,1.056,3.06,1.056
	c0.592,0,1.18-0.112,1.764-0.337c-0.16-1.367-0.473-2.691-0.936-3.971c-0.737,0.16-1.477,0.563-2.221,1.211
	C5.127,9.863,4.571,10.543,4.203,11.256z M6.039,2.471c0.704,0.728,1.356,1.636,1.956,2.724c1.088-0.456,1.908-1.036,2.46-1.74
	C9.527,2.688,8.463,2.303,7.263,2.303C6.855,2.303,6.447,2.359,6.039,2.471z M8.428,6.047c0.119,0.256,0.256,0.58,0.407,0.972
	c0.593-0.056,1.236-0.084,1.933-0.084c0.496,0,0.987,0.012,1.476,0.036c-0.063-1.088-0.456-2.056-1.176-2.904
	C10.547,4.843,9.667,5.503,8.428,6.047z M9.135,7.859c0.408,1.184,0.685,2.4,0.828,3.648c0.633-0.408,1.148-0.932,1.549-1.572
	c0.399-0.641,0.639-1.332,0.719-2.076c-0.584-0.04-1.115-0.06-1.596-0.06C10.195,7.799,9.695,7.819,9.135,7.859z"/>
</svg>
