<?xml version="1.0" encoding="utf-8"?>
<!-- Generator: Adobe Illustrator 16.0.4, SVG Export Plug-In . SVG Version: 6.00 Build 0)  -->
<!DOCTYPE svg PUBLIC "-//W3C//DTD SVG 1.1//EN" "http://www.w3.org/Graphics/SVG/1.1/DTD/svg11.dtd">
<svg version="1.1" id="Layer_1" xmlns="http://www.w3.org/2000/svg" xmlns:xlink="http://www.w3.org/1999/xlink" x="0px" y="0px"
	 width="15px" height="15px" viewBox="0 0 15 15" enable-background="new 0 0 15 15" xml:space="preserve">
<path d="M12.641,7.626c0,1.121-0.328,2.129-0.984,3.025c-0.655,0.896-1.5,1.516-2.531,1.859c-0.12,0.023-0.208,0.008-0.264-0.048
	c-0.057-0.056-0.084-0.124-0.084-0.204v-1.416c0-0.432-0.117-0.748-0.349-0.948c0.257-0.024,0.484-0.063,0.685-0.12
	c0.199-0.056,0.412-0.144,0.636-0.264s0.403-0.268,0.54-0.443c0.136-0.177,0.256-0.408,0.359-0.697
	c0.104-0.287,0.148-0.623,0.133-1.008c0-0.543-0.176-1.003-0.528-1.38c0.168-0.408,0.147-0.864-0.06-1.368
	c-0.121-0.04-0.301-0.016-0.541,0.072c-0.239,0.088-0.443,0.188-0.611,0.3L8.789,5.143c-0.416-0.12-0.844-0.18-1.284-0.18
	c-0.44,0-0.872,0.06-1.296,0.18c-0.064-0.048-0.156-0.108-0.276-0.18c-0.12-0.072-0.308-0.16-0.564-0.264
	C5.113,4.595,4.921,4.567,4.793,4.615c-0.192,0.504-0.208,0.96-0.048,1.368c-0.353,0.376-0.528,0.836-0.528,1.38
	c0,0.377,0.048,0.709,0.144,0.996c0.096,0.288,0.212,0.524,0.348,0.709c0.136,0.184,0.316,0.332,0.54,0.443
	c0.224,0.111,0.432,0.2,0.624,0.264c0.192,0.064,0.42,0.104,0.684,0.12c-0.176,0.16-0.284,0.392-0.324,0.696
	c-0.096,0.04-0.196,0.072-0.3,0.096c-0.104,0.023-0.232,0.036-0.384,0.036s-0.296-0.048-0.432-0.144
	c-0.136-0.097-0.26-0.236-0.372-0.42c-0.088-0.145-0.196-0.26-0.324-0.349c-0.128-0.088-0.24-0.144-0.336-0.168L3.953,9.631
	c-0.096,0-0.16,0.008-0.192,0.024C3.729,9.671,3.717,9.698,3.725,9.739c0.008,0.039,0.028,0.071,0.06,0.096
	c0.032,0.023,0.06,0.048,0.084,0.072l0.048,0.035c0.096,0.049,0.192,0.133,0.288,0.252c0.096,0.12,0.168,0.236,0.216,0.348
	l0.06,0.156c0.064,0.168,0.164,0.305,0.3,0.408c0.136,0.104,0.284,0.172,0.444,0.204c0.16,0.032,0.316,0.048,0.468,0.048
	s0.276-0.008,0.372-0.023l0.156-0.036v0.6c0,0.224,0.004,0.345,0.012,0.36c0,0.08-0.032,0.148-0.096,0.204s-0.152,0.071-0.264,0.048
	c-1.032-0.344-1.876-0.964-2.532-1.859C2.685,9.755,2.357,8.747,2.357,7.626c0-0.936,0.232-1.795,0.696-2.579
	c0.464-0.784,1.084-1.408,1.86-1.872c0.776-0.464,1.64-0.696,2.592-0.696s1.812,0.232,2.58,0.696s1.392,1.088,1.872,1.872
	C12.438,5.831,12.665,6.69,12.641,7.626z"/>
</svg>
