<?xml version="1.0" encoding="utf-8"?>
<!-- Generator: Adobe Illustrator 16.0.4, SVG Export Plug-In . SVG Version: 6.00 Build 0)  -->
<!DOCTYPE svg PUBLIC "-//W3C//DTD SVG 1.1//EN" "http://www.w3.org/Graphics/SVG/1.1/DTD/svg11.dtd">
<svg version="1.1" id="Layer_1" xmlns="http://www.w3.org/2000/svg" xmlns:xlink="http://www.w3.org/1999/xlink" x="0px" y="0px"
	 width="15px" height="15px" viewBox="0 0 15 15" enable-background="new 0 0 15 15" xml:space="preserve">
<path d="M2.7,4.836c0-0.464,0.1-0.872,0.3-1.224C3.2,3.26,3.424,3,3.672,2.832S4.196,2.528,4.5,2.424s0.528-0.164,0.672-0.18
	S5.42,2.22,5.484,2.22h2.76v0.048c0,0.176-0.312,0.32-0.936,0.432c-0.224,0-0.376,0.024-0.456,0.072
	c0.32,0.16,0.536,0.384,0.648,0.672s0.168,0.672,0.168,1.152c0,0.816-0.272,1.448-0.816,1.896c-0.304,0.304-0.456,0.524-0.456,0.66
	c0,0.136,0.2,0.388,0.6,0.756c0.832,0.72,1.248,1.432,1.248,2.136c0,1.12-0.464,1.896-1.392,2.328
	c-0.544,0.271-1.144,0.408-1.8,0.408H5.004l-0.048-0.024C4.94,12.771,4.924,12.78,4.908,12.78c-0.192,0-0.408-0.021-0.648-0.061
	c-0.24-0.04-0.54-0.124-0.9-0.252C3,12.34,2.704,12.112,2.472,11.784c-0.232-0.328-0.348-0.736-0.348-1.225s0.128-0.896,0.384-1.224
	c0.256-0.328,0.588-0.557,0.996-0.684c0.408-0.129,0.76-0.217,1.056-0.265s0.58-0.071,0.852-0.071h0.024
	C5.308,8.14,5.212,7.952,5.148,7.751c-0.064-0.2-0.096-0.355-0.096-0.468l0.024-0.168H4.908c-0.512,0-0.952-0.12-1.32-0.36
	C2.996,6.404,2.7,5.764,2.7,4.836z M7.14,10.26C7.108,9.844,6.936,9.508,6.624,9.251C6.312,8.996,5.9,8.867,5.388,8.867H5.196
	C4.684,8.884,4.228,9.068,3.828,9.42c-0.368,0.336-0.536,0.712-0.504,1.128c0.032,0.416,0.244,0.736,0.636,0.96
	s0.864,0.319,1.416,0.288c0.552-0.032,0.992-0.192,1.32-0.48C7.024,11.028,7.172,10.676,7.14,10.26z M6.42,4.26
	C6.18,3.396,5.692,2.964,4.956,2.964c-0.096,0-0.176,0.008-0.24,0.024c-0.32,0.096-0.548,0.344-0.684,0.744
	c-0.136,0.4-0.148,0.824-0.036,1.272c0.112,0.416,0.3,0.756,0.564,1.02C4.824,6.288,5.108,6.42,5.412,6.42
	c0.096,0,0.168-0.008,0.216-0.024C5.964,6.3,6.216,6.04,6.384,5.616C6.552,5.192,6.564,4.74,6.42,4.26z M11.076,6.348h1.8v1.128
	h-1.8v1.801H9.948V7.476H8.147V6.348h1.801v-1.8h1.128V6.348z"/>
</svg>
