<?xml version="1.0" encoding="utf-8"?>
<!-- Generator: Adobe Illustrator 16.0.4, SVG Export Plug-In . SVG Version: 6.00 Build 0)  -->
<!DOCTYPE svg PUBLIC "-//W3C//DTD SVG 1.1//EN" "http://www.w3.org/Graphics/SVG/1.1/DTD/svg11.dtd">
<svg version="1.1" id="Layer_1" xmlns="http://www.w3.org/2000/svg" xmlns:xlink="http://www.w3.org/1999/xlink" x="0px" y="0px"
	 width="15px" height="15px" viewBox="0 0 15 15" enable-background="new 0 0 15 15" xml:space="preserve">
<path d="M11.052,2.34c0.448,0,0.828,0.156,1.14,0.468C12.504,3.12,12.66,3.5,12.66,3.948V5.7h-2.616C9.42,4.82,8.572,4.38,7.5,4.38
	c-1.104,0-1.952,0.44-2.544,1.32H2.34V3.948c0-0.448,0.156-0.828,0.468-1.14S3.5,2.34,3.948,2.34H11.052z M10.619,7.5
	c0-0.208-0.023-0.408-0.071-0.6h2.112v4.129c0,0.447-0.156,0.832-0.469,1.15c-0.312,0.32-0.691,0.48-1.14,0.48H3.948
	c-0.448,0-0.828-0.16-1.14-0.48c-0.312-0.318-0.468-0.703-0.468-1.15V6.9h2.088C4.396,7.156,4.38,7.356,4.38,7.5
	c0,0.848,0.304,1.58,0.912,2.197c0.608,0.615,1.34,0.924,2.196,0.924s1.592-0.309,2.208-0.924C10.312,9.08,10.619,8.348,10.619,7.5z
	 M9.42,7.5c0,0.528-0.188,0.98-0.564,1.355C8.479,9.232,8.027,9.42,7.5,9.42c-0.528,0-0.98-0.188-1.356-0.564
	C5.768,8.48,5.58,8.024,5.58,7.488S5.768,6.5,6.144,6.132C6.52,5.764,6.972,5.58,7.5,5.58c0.527,0,0.979,0.184,1.355,0.552
	C9.232,6.5,9.42,6.956,9.42,7.5z M11.82,4.332V3.468c0-0.192-0.097-0.288-0.289-0.288h-0.863c-0.191,0-0.288,0.096-0.288,0.288
	v0.864c0,0.064,0.028,0.128,0.084,0.192s0.124,0.096,0.204,0.096h0.863C11.724,4.62,11.82,4.524,11.82,4.332z"/>
</svg>
