<?xml version="1.0" encoding="utf-8"?>
<!-- Generator: Adobe Illustrator 16.0.4, SVG Export Plug-In . SVG Version: 6.00 Build 0)  -->
<!DOCTYPE svg PUBLIC "-//W3C//DTD SVG 1.1//EN" "http://www.w3.org/Graphics/SVG/1.1/DTD/svg11.dtd">
<svg version="1.1" id="Layer_1" xmlns="http://www.w3.org/2000/svg" xmlns:xlink="http://www.w3.org/1999/xlink" x="0px" y="0px"
	 width="15px" height="15px" viewBox="0 0 15 15" enable-background="new 0 0 15 15" xml:space="preserve">
<path d="M3.114,4.068c0-0.632,0.322-0.948,0.966-0.948s0.966,0.312,0.966,0.936S4.724,4.992,4.08,4.992S3.114,4.684,3.114,4.068z
	 M5.022,11.88H3.15V5.628h1.872V11.88z M9.751,5.82c0.695,0,1.227,0.224,1.596,0.672c0.367,0.448,0.547,1.064,0.539,1.848v3.54
	h-1.871V8.531c0-0.872-0.305-1.308-0.912-1.308c-0.488,0-0.809,0.248-0.961,0.744v3.912H6.27c0.016-3.752,0.016-5.836,0-6.252h1.476
	l0.12,1.236h0.036C8.335,6.167,8.95,5.82,9.751,5.82z"/>
</svg>
