<?xml version="1.0" encoding="utf-8"?>
<!-- Generator: Adobe Illustrator 16.0.4, SVG Export Plug-In . SVG Version: 6.00 Build 0)  -->
<!DOCTYPE svg PUBLIC "-//W3C//DTD SVG 1.1//EN" "http://www.w3.org/Graphics/SVG/1.1/DTD/svg11.dtd">
<svg version="1.1" id="Layer_1" xmlns="http://www.w3.org/2000/svg" xmlns:xlink="http://www.w3.org/1999/xlink" x="0px" y="0px"
	 width="100px" height="100px" viewBox="0 0 100 100" enable-background="new 0 0 100 100" xml:space="preserve">
<path d="M100,87.711H0V12.289h100V87.711L100,87.711z M11.833,80.734h76.333L63.048,55.02l-4.756,4.787
	c-2.06,2.058-5.007,3.235-8.105,3.235c-0.017,0-0.035-0.003-0.052-0.003c-3.11-0.014-6.067-1.216-8.115-3.305l-4.835-4.895
	L11.833,80.734L11.833,80.734z M6.977,24.262v51.46l25.305-25.844L6.977,24.262L6.977,24.262z M67.964,50.069l25.06,25.652V24.84
	L67.964,50.069L67.964,50.069z M11.849,19.268l35.143,35.573c0.761,0.774,1.916,1.218,3.174,1.222c0.008,0,0.014,0,0.021,0
	c1.24,0,2.42-0.438,3.161-1.183l35.375-35.612H11.849L11.849,19.268z"/>
</svg>
