<?xml version="1.0" encoding="utf-8"?>
<!-- Generator: Adobe Illustrator 16.0.4, SVG Export Plug-In . SVG Version: 6.00 Build 0)  -->
<!DOCTYPE svg PUBLIC "-//W3C//DTD SVG 1.1//EN" "http://www.w3.org/Graphics/SVG/1.1/DTD/svg11.dtd">
<svg version="1.1" id="Layer_1" xmlns="http://www.w3.org/2000/svg" xmlns:xlink="http://www.w3.org/1999/xlink" x="0px" y="0px"
	 width="15px" height="15px" viewBox="0 0 15 15" enable-background="new 0 0 15 15" xml:space="preserve">
<path d="M13.02,4.08c-0.287,0.432-0.664,0.824-1.127,1.176v0.288c0,1.04-0.24,2.04-0.721,3s-1.225,1.772-2.232,2.437
	s-2.167,0.996-3.479,0.996c-1.28,0-2.44-0.336-3.48-1.008c0.112,0.016,0.296,0.023,0.552,0.023c1.056,0,1.992-0.32,2.808-0.961
	c-0.496-0.016-0.936-0.168-1.32-0.455C3.636,9.289,3.372,8.912,3.228,8.447c0.08,0.033,0.22,0.049,0.42,0.049
	c0.2,0,0.396-0.024,0.588-0.072C3.708,8.312,3.276,8.048,2.94,7.632s-0.504-0.896-0.504-1.44V6.168
	c0.288,0.16,0.624,0.256,1.008,0.288C2.772,5.992,2.436,5.36,2.436,4.56c0-0.384,0.104-0.76,0.312-1.128
	C3.98,4.936,5.54,5.72,7.428,5.784C7.38,5.64,7.356,5.472,7.356,5.28c0-0.624,0.22-1.156,0.66-1.596
	c0.44-0.44,0.984-0.66,1.633-0.66c0.647,0,1.188,0.232,1.619,0.696c0.48-0.096,0.961-0.271,1.44-0.528
	c-0.16,0.528-0.488,0.944-0.983,1.248C12.172,4.376,12.604,4.256,13.02,4.08z"/>
</svg>
